<?xml version="1.0" encoding="iso-8859-1"?>
<!-- Generator: Adobe Illustrator 19.0.0, SVG Export Plug-In . SVG Version: 6.00 Build 0)  -->
<svg version="1.1" id="Layer_1" xmlns="http://www.w3.org/2000/svg" xmlns:xlink="http://www.w3.org/1999/xlink" x="0px" y="0px"
	 viewBox="0 0 485 485" style="enable-background:new 0 0 485 485;" xml:space="preserve">
<path d="M392.591,227.399c-11.187,0-21.916,2-31.849,5.658l-28.767-52.704V69.878h-64.648v30h34.648v80.475l-60.616,111.053
	l-52.821-96.771h37.199v-30h-74.995v23.373l65.341,119.706h-32.489c-7.188-43.845-45.337-77.409-91.184-77.409
	C41.455,230.304,0,271.759,0,322.713s41.455,92.409,92.409,92.409c45.847,0,83.997-33.564,91.184-77.409h66.666l66.715-122.225
	l17.678,32.387c-21.007,16.953-34.47,42.898-34.47,71.932c0,50.954,41.454,92.409,92.408,92.409S485,370.761,485,319.807
	S443.545,227.399,392.591,227.399z M92.409,385.122C57.997,385.122,30,357.125,30,322.713s27.997-62.409,62.409-62.409
	c29.241,0,53.839,20.219,60.574,47.409H92.409v30h60.574C146.248,364.902,121.651,385.122,92.409,385.122z M392.591,382.216
	c-34.412,0-62.408-27.997-62.408-62.409c0-17.649,7.376-33.598,19.192-44.96l30.05,55.052l26.332-14.373l-30.397-55.689
	c5.477-1.576,11.253-2.438,17.231-2.438c34.412,0,62.409,27.997,62.409,62.409S427.003,382.216,392.591,382.216z"/>
<g>
</g>
<g>
</g>
<g>
</g>
<g>
</g>
<g>
</g>
<g>
</g>
<g>
</g>
<g>
</g>
<g>
</g>
<g>
</g>
<g>
</g>
<g>
</g>
<g>
</g>
<g>
</g>
<g>
</g>
</svg>
