<?xml version="1.0" standalone="no"?>
<!DOCTYPE svg PUBLIC "-//W3C//DTD SVG 20010904//EN"
 "http://www.w3.org/2001/XMLSchema">
<svg version="1.0" xmlns="http://www.w3.org/2000/svg"
 width="241.000000pt" height="150.000000pt" viewBox="0 0 241.000000 150.000000"
 preserveAspectRatio="xMidYMid meet">
<metadata>
Created by potrace 1.16, written by Peter Selinger 2001-2019
</metadata>
<g transform="translate(0.000000,150.000000) scale(0.100000,-0.100000)"
fill="#000000" stroke="none">
<path d="M1634 1473 c-10 -16 -29 -38 -43 -50 l-26 -23 33 -92 c44 -127 43
-151 -14 -211 l-45 -47 -43 25 c-24 14 -53 25 -65 25 -25 0 -217 -170 -234
-207 -9 -20 -7 -37 11 -86 12 -34 22 -69 22 -77 -1 -8 -30 -46 -65 -84 -56
-60 -65 -67 -72 -50 -4 10 -66 169 -139 351 l-132 333 42 11 c131 33 131 33
134 61 4 37 -9 39 -213 36 l-170 -3 -3 -26 c-4 -31 56 -89 91 -89 40 0 56 -22
102 -145 25 -66 45 -121 45 -122 0 -2 -142 -3 -316 -3 -307 0 -317 1 -355 22
-27 15 -42 19 -50 11 -13 -13 32 -69 62 -78 12 -4 28 -23 36 -43 l15 -37 -33
-24 c-72 -53 -141 -133 -172 -199 -55 -117 -49 -290 13 -413 50 -98 175 -194
294 -225 211 -56 440 50 527 243 17 38 34 75 39 83 6 12 26 14 99 12 68 -2
100 1 123 12 17 9 38 16 45 16 25 0 73 -33 79 -55 10 -30 23 -35 95 -35 71 0
94 12 78 42 -7 13 -21 18 -48 18 -59 0 -191 73 -191 106 0 17 490 544 506 544
18 0 36 -58 24 -80 -6 -10 -10 -26 -10 -35 0 -9 -35 -51 -78 -93 -90 -89 -126
-155 -142 -259 -46 -296 195 -551 500 -530 182 12 344 144 400 324 95 307
-166 619 -493 589 -67 -6 -68 -6 -78 21 -6 15 -16 57 -24 94 -16 77 -48 161
-75 199 -10 14 -24 48 -31 74 -11 46 -11 48 20 80 35 36 40 75 13 99 -29 26
-69 21 -88 -10z m-830 -586 l-59 -63 -60 32 c-117 63 -219 78 -340 49 -64 -15
-69 -13 -80 23 l-6 22 301 0 302 0 -58 -63z m194 -322 c-2 -2 -20 -2 -39 1
-32 5 -35 9 -31 35 3 23 0 29 -20 34 -13 3 -29 14 -34 23 -6 9 -22 37 -37 62
l-26 45 41 49 41 48 55 -146 c30 -81 53 -149 50 -151z m-428 233 c19 -6 49
-20 67 -32 l31 -20 -90 -98 c-122 -132 -122 -132 -193 18 -30 65 -55 118 -55
119 0 5 55 24 80 29 34 6 117 -2 160 -16z m1514 -11 c73 -34 146 -103 182
-174 26 -52 29 -68 29 -153 0 -83 -3 -102 -27 -151 -49 -99 -134 -168 -241
-195 -244 -63 -478 163 -427 412 15 73 40 123 87 175 40 44 91 75 102 62 4 -4
24 -54 45 -111 32 -89 36 -107 27 -134 -30 -86 10 -158 88 -158 55 0 90 32 98
87 5 39 2 45 -28 75 -19 18 -42 38 -52 43 -10 6 -33 53 -51 105 -19 52 -37
103 -41 112 -18 44 116 47 209 5z m-1738 -132 c53 -111 54 -116 39 -144 -21
-42 -19 -76 9 -107 23 -28 25 -28 182 -35 88 -4 171 -8 187 -8 84 -3 -29 -158
-163 -224 -57 -28 -74 -32 -145 -32 -65 1 -91 6 -137 27 -116 54 -199 167
-213 289 -14 113 47 254 137 319 22 17 43 30 45 30 3 0 29 -52 59 -115z"/>
</g>
</svg>
