<?xml version="1.0" encoding="iso-8859-1"?>
<!-- Generator: Adobe Illustrator 17.1.0, SVG Export Plug-In . SVG Version: 6.00 Build 0)  -->
<!DOCTYPE svg PUBLIC "-//W3C//DTD SVG 1.1//EN" "http://www.w3.org/Graphics/SVG/1.1/DTD/svg11.dtd">
<svg version="1.1" id="Capa_1" xmlns="http://www.w3.org/2000/svg" xmlns:xlink="http://www.w3.org/1999/xlink" x="0px" y="0px"
	 viewBox="0 0 295.49 295.49" style="enable-background:new 0 0 295.49 295.49;" xml:space="preserve">
<g>
	<path d="M241.766,131.382c-4.684,0-9.227,0.547-13.558,1.672l-13.483-28.428h27.041c5.563,0,9.647-4.396,9.647-9.959V66.015
		c0-5.563-4.084-9.389-9.647-9.389H199.68c-5.563,0-10.072,4.438-10.072,10c0,5.564,4.51,10,10.072,10h31.732v8H104.23l-4.057-8
		h18.021c5.563,0,10.072-4.438,10.072-10s-4.51-10-10.072-10H76.111c-5.563,0-10.072,4.438-10.072,10s4.51,10,10.072,10h1.743
		l8.277,17.088l-18.851,39.531c-4.331-1.125-8.873-1.795-13.557-1.795C24.053,131.45,0,155.469,0,185.139
		c0,29.674,24.053,53.726,53.725,53.726c26.08,0,47.816-18.238,52.695-43.238h48.967c2.949,0,5.594-1.291,7.436-3.313
		c0.83-0.811,1.55-1.768,2.077-2.877l33.885-71.299l11.234,23.636c-13.324,9.777-21.98,25.54-21.98,43.331
		c0,29.674,24.055,53.728,53.727,53.728c29.674,0,53.725-24.052,53.725-53.726C295.49,155.436,271.439,131.382,241.766,131.382z
		 M182.846,104.626l-33.606,71h-1.68l-33.722-71H182.846z M97.304,116.96l27.937,58.666h-18.672
		c-2.501-14-10.244-25.758-21.099-33.723L97.304,116.96z M53.723,175.03c5.566,0,10.076,4.51,10.076,10.074
		c0,5.566-4.51,10.078-10.076,10.078c-5.562,0-10.074-4.512-10.074-10.078C43.648,179.54,48.16,175.03,53.723,175.03z
		 M241.766,195.183c-5.564,0-10.076-4.512-10.076-10.078c0-5.564,4.512-10.074,10.076-10.074c5.563,0,10.074,4.51,10.074,10.074
		C251.84,190.671,247.328,195.183,241.766,195.183z"/>
</g>
<g>
</g>
<g>
</g>
<g>
</g>
<g>
</g>
<g>
</g>
<g>
</g>
<g>
</g>
<g>
</g>
<g>
</g>
<g>
</g>
<g>
</g>
<g>
</g>
<g>
</g>
<g>
</g>
<g>
</g>
</svg>
