<?xml version="1.0" encoding="iso-8859-1"?>
<!-- Generator: Adobe Illustrator 16.0.0, SVG Export Plug-In . SVG Version: 6.00 Build 0)  -->
<!DOCTYPE svg PUBLIC "-//W3C//DTD SVG 1.1//EN" "http://www.w3.org/Graphics/SVG/1.1/DTD/svg11.dtd">
<svg version="1.1" id="Capa_1" xmlns="http://www.w3.org/2000/svg" xmlns:xlink="http://www.w3.org/1999/xlink" x="0px" y="0px"
	 width="307.222px" height="307.223px" viewBox="0 0 307.222 307.223" style="enable-background:new 0 0 307.222 307.223;"
	 xml:space="preserve">
<g>
	<g>
		<path d="M140.961,47.614c0,18.273,14.809,33.089,33.088,33.089c4.342,0,8.477-0.859,12.276-2.375l49.127-11.21
			c11.447-2.612,20.728-10.82,20.728-18.319c0-7.508-9.469-14.574-21.153-15.789l-33.26-3.45
			c-5.906-9.045-16.105-15.037-27.718-15.037C155.77,14.523,140.961,29.338,140.961,47.614z"/>
		<path d="M113.6,46.683c0,7.526,1.821,14.605,4.981,20.895c-50.336,50.458-72.659,114.58-80.018,140.251
			c-17.403,7.715-29.554,25.105-29.554,45.37v28.662h8.58c-1.154-4.037-1.814-8.294-1.814-12.708
			c0-25.453,20.639-46.096,46.092-46.096c25.458,0,46.098,20.643,46.098,46.096c0,4.414-0.661,8.671-1.815,12.708h94.924
			c-1.151-4.037-1.814-8.294-1.814-12.708c0-25.453,20.642-46.096,46.095-46.096c25.452,0,46.089,20.643,46.089,46.096
			c0,4.414-0.664,8.671-1.814,12.708h8.585v-54.778c-7.538-17.811-26.238-30.306-56.373-30.306c-13.999,0-26.64,5.784-35.664,15.113
			c0,0-24.308,25.952-62.429,25.361c-16.934-0.262-29.45-6.46-36.657-11.271c7.943-45.779,37.113-112.236,46.622-133.131
			c2.156,0.305,4.338,0.518,6.583,0.518c11.223,0,21.501-3.961,29.551-10.552l-2.448,0.557c-4.536,1.75-9.286,2.637-14.12,2.637
			c-21.687,0-39.324-17.646-39.324-39.327c0-21.687,17.637-39.33,39.324-39.33c6.266,0,12.306,1.495,17.713,4.226
			C182.776,4.391,172.052,0,160.276,0C134.495,0,113.6,20.901,113.6,46.683z"/>
		<path d="M61.492,232.399c20.661,0,37.412,16.744,37.412,37.411c0,20.654-16.751,37.412-37.412,37.412
			c-20.664,0-37.412-16.758-37.412-37.412C24.08,249.144,40.828,232.399,61.492,232.399z"/>
		<path d="M245.951,232.399c20.66,0,37.411,16.744,37.411,37.411c0,20.654-16.751,37.412-37.411,37.412
			c-20.667,0-37.412-16.758-37.412-37.412C208.539,249.144,225.284,232.399,245.951,232.399z"/>
	</g>
</g>
<g>
</g>
<g>
</g>
<g>
</g>
<g>
</g>
<g>
</g>
<g>
</g>
<g>
</g>
<g>
</g>
<g>
</g>
<g>
</g>
<g>
</g>
<g>
</g>
<g>
</g>
<g>
</g>
<g>
</g>
</svg>
