<?xml version="1.0" encoding="iso-8859-1"?>
<!-- Generator: Adobe Illustrator 19.0.0, SVG Export Plug-In . SVG Version: 6.00 Build 0)  -->
<svg version="1.1" id="Layer_1" xmlns="http://www.w3.org/2000/svg" xmlns:xlink="http://www.w3.org/1999/xlink" x="0px" y="0px"
	 viewBox="0 0 512 512" style="enable-background:new 0 0 512 512;" xml:space="preserve">
<path style="fill:#615349;" d="M450.367,439.677c-7.389,0-14.199-4.845-16.378-12.301L324.567,51.805
	c-2.633-9.05,2.567-18.522,11.611-21.156c9.044-2.639,18.522,2.55,21.167,11.611l109.422,375.572
	c2.633,9.05-2.567,18.522-11.611,21.156C453.556,439.455,451.956,439.677,450.367,439.677z"/>
<path style="fill:#765B43;" d="M267.371,73.961c-7.645,0-14.611-5.178-16.544-12.933c-2.289-9.144,3.267-18.412,12.411-20.694
	L399.771,6.201c9.144-2.299,18.422,3.272,20.7,12.417c2.289,9.144-3.267,18.412-12.411,20.694L271.526,73.445
	C270.137,73.794,268.737,73.961,267.371,73.961z"/>
<g>
	<path style="fill:#6E6057;" d="M164.978,472.184H73.956c-9.422,0-17.067-7.639-17.067-17.067c0-9.428,7.645-17.067,17.067-17.067
		h91.022c9.422,0,17.067,7.639,17.067,17.067C182.044,464.545,174.4,472.184,164.978,472.184z"/>
	<path style="fill:#6E6057;" d="M460.8,506.317c-28.233,0-51.2-22.967-51.2-51.2c0-28.233,22.967-51.2,51.2-51.2
		s51.2,22.967,51.2,51.2C512,483.35,489.033,506.317,460.8,506.317z"/>
</g>
<path style="fill:#E2E7EC;" d="M460.8,438.05c-9.411,0-17.067,7.656-17.067,17.067c0,9.411,7.656,17.067,17.067,17.067
	s17.067-7.656,17.067-17.067C477.867,445.706,470.211,438.05,460.8,438.05z"/>
<path style="fill:#615349;" d="M512,455.117c0-28.233-22.967-51.2-51.2-51.2v102.4C489.033,506.317,512,483.35,512,455.117z"/>
<path style="fill:#CCD5E0;" d="M477.867,455.117c0-9.411-7.656-17.067-17.067-17.067v34.133
	C470.211,472.184,477.867,464.528,477.867,455.117z"/>
<path style="fill:#6E6057;" d="M51.2,506.317c-28.233,0-51.2-22.967-51.2-51.2c0-28.233,22.967-51.2,51.2-51.2
	s51.2,22.967,51.2,51.2C102.4,483.35,79.433,506.317,51.2,506.317z"/>
<path style="fill:#E2E7EC;" d="M51.2,438.05c-9.411,0-17.067,7.656-17.067,17.067c0,9.411,7.656,17.067,17.067,17.067
	s17.067-7.656,17.067-17.067C68.267,445.706,60.611,438.05,51.2,438.05z"/>
<path style="fill:#615349;" d="M102.4,455.117c0-28.233-22.967-51.2-51.2-51.2v102.4C79.433,506.317,102.4,483.35,102.4,455.117z"/>
<path style="fill:#CCD5E0;" d="M68.267,455.117c0-9.411-7.656-17.067-17.067-17.067v34.133
	C60.611,472.184,68.267,464.528,68.267,455.117z"/>
<path style="fill:#BF6745;" d="M460.8,335.65c-31.917,0-61.561,12.868-83.378,34.133H123.197
	c-21.817-21.265-51.459-34.133-83.375-34.133c-9.422,0-17.067,7.639-17.067,17.067s7.645,17.067,17.067,17.067
	c38.278,0,72.111,25.772,82.277,62.689c6.566,23.75,26.567,39.711,49.789,39.711h156.845c23.222,0,43.222-15.961,49.789-39.722
	c10.167-36.906,44-62.678,82.277-62.678c9.422,0,17.067-7.639,17.067-17.067S470.222,335.65,460.8,335.65z"/>
<path style="fill:#B1532F;" d="M460.8,335.65c-31.917,0-61.561,12.868-83.378,34.133H250.311v102.4h78.422
	c23.222,0,43.222-15.961,49.789-39.722c10.167-36.906,44-62.678,82.277-62.678c9.422,0,17.067-7.639,17.067-17.067
	S470.222,335.65,460.8,335.65z"/>
<g>
</g>
<g>
</g>
<g>
</g>
<g>
</g>
<g>
</g>
<g>
</g>
<g>
</g>
<g>
</g>
<g>
</g>
<g>
</g>
<g>
</g>
<g>
</g>
<g>
</g>
<g>
</g>
<g>
</g>
</svg>
